<svg xmlns="http://www.w3.org/2000/svg" xmlns:xlink="http://www.w3.org/1999/xlink" width="573.09" height="188.905" viewBox="0 0 573.09 188.905">
  <defs>
    <linearGradient id="linear-gradient" x1="0.532" y1="0.996" x2="0.447" y2="0.112" gradientUnits="objectBoundingBox">
      <stop offset="0" stop-color="#fff"/>
      <stop offset="0.298" stop-color="#fcfcfc"/>
      <stop offset="0.44" stop-color="#f5f5f5"/>
      <stop offset="0.549" stop-color="#e8e8e8"/>
      <stop offset="0.642" stop-color="#d6d5d6"/>
      <stop offset="0.724" stop-color="#bfbdbe"/>
      <stop offset="0.798" stop-color="#a1a0a0"/>
      <stop offset="0.867" stop-color="#7f7d7d"/>
      <stop offset="0.931" stop-color="#575454"/>
      <stop offset="0.99" stop-color="#2b2728"/>
      <stop offset="1" stop-color="#231f20"/>
    </linearGradient>
    <linearGradient id="linear-gradient-2" x1="0.488" y1="1.003" x2="0.518" y2="0.104" xlink:href="#linear-gradient"/>
  </defs>
  <g id="Logo_B" data-name="Logo B" transform="translate(0 0)">
    <path id="Path_255" data-name="Path 255" d="M1163.389,1881.031c0-2.019,1.495-3.065,3.924-3.065a6.824,6.824,0,0,1,5.119,2.13h.411l1.383-2.242a9.736,9.736,0,0,0-6.913-2.541c-5.381,0-8.632,3.326-8.632,7.511,0,8.408,11.7,7.324,11.7,13.079,0,2.467-1.72,3.811-4.521,3.811a8.27,8.27,0,0,1-6.279-3.026h-.411l-1.532,2.13a11.14,11.14,0,0,0,8.445,3.55c5.419,0,9.231-3.065,9.231-8.035C1175.31,1885.253,1163.389,1886.038,1163.389,1881.031Z" transform="translate(-1157.634 -1716.341)" fill="#fff"/>
    <path id="Path_256" data-name="Path 256" d="M1400.24,1814.518h17.3V1773l-17.313-21.193Z" transform="translate(-1157.634 -1716.341)" fill="url(#linear-gradient)"/>
    <path id="Path_257" data-name="Path 257" d="M1442.05,1814.518H1459.5l.025-61.231-17.514,19.976Z" transform="translate(-1157.634 -1716.341)" fill="url(#linear-gradient-2)"/>
    <path id="Path_258" data-name="Path 258" d="M1379.292,1806.291a10,10,0,0,1-5.069,1.938c-8.644,1.25-17.021-2.238-24.281-6.616-.306-.184-2.577-1.726-2.577-1.726v8.405c.039.182.784.566.948.681a37.979,37.979,0,0,0,19.537,6.99q1.375.086,2.754.068a35.656,35.656,0,0,0,9.724-1.463,24.218,24.218,0,0,0,8.518-4.287c6.546-5.373,8.2-16.9,3.162-23.821-2.062-2.834-5.191-4.676-8.305-6.283-5.05-2.606-9.992-3.839-15.092-5.75-3.6-1.351-9.439-3.231-10.178-7.837-.752-4.692,4.393-7.164,8.186-7.747,6.717-1.031,13.277,1.033,18.729,4.936.344.246,2.566,1.571,2.566,2.066l.017-8.394s-4.194-4.415-14.421-5.532c-7.085-.939-15.2.67-20.788,5.327a17.161,17.161,0,0,0-3.133,23.289c2.293,3.276,5.716,5.48,9.241,7.237a86.1,86.1,0,0,0,9.042,3.875c2.964,1.074,6.155,1.77,8.951,3.256a8.745,8.745,0,0,1,4.351,4.61A6.37,6.37,0,0,1,1379.292,1806.291Z" transform="translate(-1157.634 -1716.341)" fill="#fff"/>
    <path id="Path_259" data-name="Path 259" d="M1549.35,1828.6H1325.467v-25.488a30.022,30.022,0,0,0,8.284-10.851,23.819,23.819,0,0,0,.384-17.4c-2.579-6.685-8.668-11.619-8.668-11.619v-25.344h114.387l9.374-8.484H1308.112v36.621c8.17.061,17.559,7.8,17.559,17.344s-9.389,17.284-17.559,17.345v36.337l246.741.009Z" transform="translate(-1157.634 -1716.341)" fill="#1b75bb"/>
    <path id="Path_260" data-name="Path 260" d="M1415.857,1751.8h-15.632L1417.538,1773l11.916,14.585,12.556-14.32,17.514-19.976,28.247-32.216v-4.729l-58.317,51.161Z" transform="translate(-1157.634 -1716.341)" fill="#4ead76"/>
    <path id="Path_261" data-name="Path 261" d="M1494.66,1814.518v-54.24h12.4v-8.4l-41.914-.053v8.449h12.2v54.24Z" transform="translate(-1157.634 -1716.341)" fill="#fff"/>
    <path id="Path_262" data-name="Path 262" d="M1530.251,1814.59v-54.37h13.129c15.56,0,15.56,19.082-5.574,18.619l37.378,58.294H1591.5s-36.857-55.251-36.882-55.3c6.336-2.225,11.063-6.761,10.592-14.386-.664-10.759-8.486-15.595-21.826-15.595h-30.367l.035,62.733Z" transform="translate(-1157.634 -1716.341)" fill="#fff"/>
    <path id="Path_263" data-name="Path 263" d="M1188.871,1875.761h-9.64v26.158h5.381v-11.135h4.259c5.045,0,9.006-1.831,9.006-7.586C1197.877,1877.48,1193.916,1875.761,1188.871,1875.761Zm3.139,8.184c0,3.027-1.2,4.185-3.139,4.185h-4.259v-9.715h4.259c1.944,0,3.139,1.045,3.139,4.036Z" transform="translate(-1157.634 -1716.341)" fill="#fff"/>
    <path id="Path_264" data-name="Path 264" d="M1207.18,1889.55h7.474V1886.9h-7.474v-8.482h10.2l-.859-2.653H1201.8v26.158h15.471l.859-2.653H1207.18Z" transform="translate(-1157.634 -1716.341)" fill="#fff"/>
    <path id="Path_265" data-name="Path 265" d="M1230.309,1877.966c2.391,0,4.036,1.083,5.419,3.251h.41l1.5-2.018a8.649,8.649,0,0,0-7.4-3.886c-6.2,0-10.726,4.82-10.726,13.527,0,8.632,4.521,13.528,10.726,13.528a8.649,8.649,0,0,0,7.4-3.886l-1.345-1.57h-.374a6.625,6.625,0,0,1-5.568,2.8c-3.325,0-4.933-2.017-4.933-6.352v-8.857C1225.413,1879.947,1227.17,1877.966,1230.309,1877.966Z" transform="translate(-1157.634 -1716.341)" fill="#fff"/>
    <rect id="Rectangle_23" data-name="Rectangle 23" width="5.381" height="26.158" transform="translate(83.247 159.42)" fill="#fff"/>
    <path id="Path_266" data-name="Path 266" d="M1264.833,1901.919h5.681l-9.081-26.158h-2.952l-9.006,26.158h2.989l1.645-4.895h9.043Zm-9.79-7.548,3.587-10.576,3.625,10.576Z" transform="translate(-1157.634 -1716.341)" fill="#fff"/>
    <path id="Path_267" data-name="Path 267" d="M1289.306,1899.266h-10.2v-23.5h-5.381v26.158h14.723Z" transform="translate(-1157.634 -1716.341)" fill="#fff"/>
    <path id="Path_268" data-name="Path 268" d="M1304.064,1883.2l7.063,18.722h1.682l7.1-18.834v18.834h5.381v-26.158h-5.643l-6.277,16.741-6.315-16.741h-5.792v26.158h2.8Z" transform="translate(-1157.634 -1716.341)" fill="#fff"/>
    <path id="Path_269" data-name="Path 269" d="M1328.5,1901.919h2.99l1.644-4.895h9.043l1.682,4.895h5.68l-9.081-26.158H1337.5Zm12.781-7.548h-7.212l3.587-10.576Z" transform="translate(-1157.634 -1716.341)" fill="#fff"/>
    <path id="Path_270" data-name="Path 270" d="M1372.254,1901.919l-5.306-11.808c2.691-.972,4.447-3.065,4.447-6.913,0-5.718-3.961-7.437-9.006-7.437h-9.641v26.158h5.381v-11.135h3.55l4.671,11.135Zm-6.726-17.974c0,3.027-1.2,4.185-3.139,4.185h-4.26v-9.715h4.26c1.943,0,3.139,1.045,3.139,4.036Z" transform="translate(-1157.634 -1716.341)" fill="#fff"/>
    <path id="Path_271" data-name="Path 271" d="M1375.99,1875.761v26.158h5.381v-8.781l2.392-3.177,5.941,11.958h6.24l-8.632-16.741,7.063-9.417h-3.437l-9.566,12.817v-12.817Z" transform="translate(-1157.634 -1716.341)" fill="#fff"/>
    <path id="Path_272" data-name="Path 272" d="M1414.363,1878.415l-.859-2.653h-14.723v26.158h15.471l.859-2.653h-10.949v-9.716h7.474V1886.9h-7.474v-8.482Z" transform="translate(-1157.634 -1716.341)" fill="#fff"/>
    <path id="Path_273" data-name="Path 273" d="M1428.412,1901.919v-23.5h6.726l-.859-2.653h-17.114l-.9,2.653h6.764v23.5Z" transform="translate(-1157.634 -1716.341)" fill="#fff"/>
    <path id="Path_274" data-name="Path 274" d="M1441.077,1881.031c0-2.019,1.495-3.065,3.924-3.065a6.821,6.821,0,0,1,5.119,2.13h.411l1.383-2.242a9.736,9.736,0,0,0-6.913-2.541c-5.381,0-8.632,3.326-8.632,7.511,0,8.408,11.7,7.324,11.7,13.079,0,2.467-1.72,3.811-4.522,3.811a8.268,8.268,0,0,1-6.278-3.026h-.411l-1.533,2.13a11.143,11.143,0,0,0,8.446,3.55c5.419,0,9.23-3.065,9.23-8.035C1453,1885.253,1441.077,1886.038,1441.077,1881.031Z" transform="translate(-1157.634 -1716.341)" fill="#fff"/>
    <path id="Path_275" data-name="Path 275" d="M1464.467,1875.761l-.9,2.653h6.764v23.5h5.382v-23.5h6.726l-.859-2.653Z" transform="translate(-1157.634 -1716.341)" fill="#fff"/>
    <rect id="Rectangle_24" data-name="Rectangle 24" width="5.381" height="26.158" transform="translate(328.017 159.42)" fill="#fff"/>
    <path id="Path_276" data-name="Path 276" d="M1505.754,1877.966c2.392,0,4.036,1.083,5.419,3.251h.41l1.495-2.018a8.647,8.647,0,0,0-7.4-3.886c-6.2,0-10.726,4.82-10.726,13.527,0,8.632,4.522,13.528,10.726,13.528a8.647,8.647,0,0,0,7.4-3.886l-1.344-1.57h-.374a6.628,6.628,0,0,1-5.569,2.8c-3.325,0-4.932-2.017-4.932-6.352v-8.857C1500.859,1879.947,1502.615,1877.966,1505.754,1877.966Z" transform="translate(-1157.634 -1716.341)" fill="#fff"/>
    <path id="Path_277" data-name="Path 277" d="M1516.327,1875.761v26.158h5.381v-8.781l2.392-3.177,5.941,11.958h6.24l-8.632-16.741,7.063-9.417h-3.437l-9.566,12.817v-12.817Z" transform="translate(-1157.634 -1716.341)" fill="#fff"/>
    <path id="Path_278" data-name="Path 278" d="M1554.7,1878.415l-.859-2.653h-14.723v26.158h15.471l.859-2.653H1544.5v-9.716h7.474V1886.9H1544.5v-8.482Z" transform="translate(-1157.634 -1716.341)" fill="#fff"/>
    <path id="Path_279" data-name="Path 279" d="M1568.75,1901.919v-23.5h6.726l-.859-2.653H1557.5l-.9,2.653h6.764v23.5Z" transform="translate(-1157.634 -1716.341)" fill="#fff"/>
    <path id="Path_280" data-name="Path 280" d="M1592.737,1890.784h3.549l4.671,11.135h5.905l-5.306-11.808c2.69-.972,4.446-3.065,4.446-6.913,0-5.718-3.961-7.437-9.006-7.437h-9.64v26.158h5.381Zm0-12.369H1597c1.944,0,3.139,1.045,3.139,4.036v1.494c0,3.027-1.2,4.185-3.139,4.185h-4.259Z" transform="translate(-1157.634 -1716.341)" fill="#fff"/>
    <path id="Path_281" data-name="Path 281" d="M1615.978,1889.55h7.474V1886.9h-7.474v-8.482h10.2l-.859-2.653H1610.6v26.158h15.471l.859-2.653h-10.949Z" transform="translate(-1157.634 -1716.341)" fill="#fff"/>
    <path id="Path_282" data-name="Path 282" d="M1638.7,1875.313c-6.017,0-10.389,4.82-10.389,13.527,0,8.67,4.372,13.528,10.389,13.528a10.862,10.862,0,0,0,2.952-.411l1.569,3.289h4.56l-2.654-5.27c2.466-2.279,3.961-6.054,3.961-11.136C1649.084,1880.133,1644.712,1875.313,1638.7,1875.313Zm4.484,18.572a10.617,10.617,0,0,1-.15,1.981l-.486-.972h-4.26l2.168,4.559a5.247,5.247,0,0,1-1.756.261c-2.728,0-4.485-1.532-4.485-5.792v-10.164c0-4.259,1.757-5.792,4.485-5.792s4.484,1.533,4.484,5.792Z" transform="translate(-1157.634 -1716.341)" fill="#fff"/>
    <path id="Path_283" data-name="Path 283" d="M1667.355,1894.708c0,3.549-1.794,5.006-4.485,5.006-2.653,0-4.484-1.42-4.484-5.006v-18.947h-5.381v18.5c0,4.97,3.026,8.109,9.043,8.109,5.755,0,8.109-3.251,8.109-8.035v-18.572h-2.8Z" transform="translate(-1157.634 -1716.341)" fill="#fff"/>
    <path id="Path_284" data-name="Path 284" d="M1680.767,1889.55h7.474V1886.9h-7.474v-8.482h10.2l-.859-2.653h-14.723v26.158h15.471l.859-2.653h-10.949Z" transform="translate(-1157.634 -1716.341)" fill="#fff"/>
    <path id="Path_285" data-name="Path 285" d="M1699.411,1881.031c0-2.019,1.495-3.065,3.924-3.065a6.821,6.821,0,0,1,5.119,2.13h.411l1.383-2.242a9.737,9.737,0,0,0-6.913-2.541c-5.381,0-8.632,3.326-8.632,7.511,0,8.408,11.7,7.324,11.7,13.079,0,2.467-1.72,3.811-4.522,3.811a8.268,8.268,0,0,1-6.278-3.026h-.411l-1.533,2.13a11.144,11.144,0,0,0,8.446,3.55c5.419,0,9.23-3.065,9.23-8.035C1711.332,1885.253,1699.411,1886.038,1699.411,1881.031Z" transform="translate(-1157.634 -1716.341)" fill="#fff"/>
    <path id="Path_286" data-name="Path 286" d="M1729.865,1875.761H1712.75l-.9,2.653h6.764v23.5H1724v-23.5h6.726Z" transform="translate(-1157.634 -1716.341)" fill="#fff"/>
  </g>
</svg>
