<svg xmlns="http://www.w3.org/2000/svg" xmlns:xlink="http://www.w3.org/1999/xlink" width="98.734" height="42.37" viewBox="0 0 98.734 42.37">
  <defs>
    <linearGradient id="linear-gradient" x1="0.532" y1="0.996" x2="0.447" y2="0.112" gradientUnits="objectBoundingBox">
      <stop offset="0" stop-color="#1b75bb"/>
      <stop offset="0.354" stop-color="#1a72b9"/>
      <stop offset="0.523" stop-color="#186bb3"/>
      <stop offset="0.653" stop-color="#155eaa"/>
      <stop offset="0.762" stop-color="#114b9c"/>
      <stop offset="0.86" stop-color="#0c338b"/>
      <stop offset="0.947" stop-color="#051676"/>
      <stop offset="1" stop-color="#010166"/>
    </linearGradient>
    <linearGradient id="linear-gradient-2" x1="0.488" y1="1.003" x2="0.518" y2="0.104" xlink:href="#linear-gradient"/>
  </defs>
  <g id="Group_256" data-name="Group 256" transform="translate(-129.494 -102.388)">
    <path id="Path_216" data-name="Path 216" d="M241.076,167.343h6.068V152.779l-6.073-7.434Z" transform="translate(-79.267 -30.518)" fill="url(#linear-gradient)"/>
    <path id="Path_217" data-name="Path 217" d="M291.7,168.618h6.121l.009-21.478-6.143,7.007Z" transform="translate(-115.225 -31.793)" fill="url(#linear-gradient-2)"/>
    <path id="Path_218" data-name="Path 218" d="M187.418,164.335a3.507,3.507,0,0,1-1.778.68c-3.032.438-5.97-.785-8.517-2.321-.107-.065-.9-.605-.9-.605v2.948c.014.064.275.2.332.239a13.323,13.323,0,0,0,6.853,2.452q.483.03.966.024a12.516,12.516,0,0,0,3.411-.513,8.5,8.5,0,0,0,2.988-1.5,6.547,6.547,0,0,0,1.109-8.356,7.971,7.971,0,0,0-2.913-2.2,45.724,45.724,0,0,0-5.294-2.017c-1.265-.474-3.311-1.133-3.57-2.749-.264-1.646,1.541-2.513,2.871-2.717a8.944,8.944,0,0,1,6.569,1.731c.12.086.9.551.9.725l.006-2.944s-1.471-1.548-5.058-1.94a9.677,9.677,0,0,0-7.292,1.869A6.019,6.019,0,0,0,177,155.3a8.37,8.37,0,0,0,3.242,2.539,30.161,30.161,0,0,0,3.171,1.359,23.923,23.923,0,0,1,3.14,1.142,3.069,3.069,0,0,1,1.526,1.617A2.234,2.234,0,0,1,187.418,164.335Z" transform="translate(-32.957 -30.396)" fill="#1b75bb"/>
    <path id="Path_219" data-name="Path 219" d="M135.581,153.009v-8.94a10.534,10.534,0,0,0,2.906-3.806,8.356,8.356,0,0,0,.135-6.1,11.271,11.271,0,0,0-3.041-4.076v-8.89H175.7l3.288-2.976h-49.5v12.845c2.866.021,6.159,2.736,6.159,6.084s-3.293,6.062-6.159,6.084v12.746l86.548,0-1.931-2.97Z" transform="translate(0 -11.245)" fill="#000075"/>
    <path id="Path_220" data-name="Path 220" d="M246.554,114.827H241.07l6.073,7.434,4.18,5.116,4.4-5.023,6.143-7.007,9.908-11.3v-1.659l-20.456,17.945Z" transform="translate(-79.267)" fill="#4ead76"/>
    <path id="Path_221" data-name="Path 221" d="M330.065,167.364V148.338h4.35v-2.945l-14.7-.019v2.963h4.279v19.025Z" transform="translate(-135.136 -30.539)" fill="#1b75bb"/>
    <path id="Path_222" data-name="Path 222" d="M392.284,155.925c2.222-.78,3.88-2.372,3.715-5.046-.233-3.774-2.977-5.47-7.656-5.47H377.691l.012,22h6.034V148.341h4.605c5.458,0,5.458,6.693-1.955,6.531L399.5,175.32h5.055S392.292,155.94,392.284,155.925Z" transform="translate(-176.325 -30.563)" fill="#1b75bb"/>
  </g>
</svg>
